<svg width="131" height="135" viewBox="0 0 131 135" fill="white" xmlns="http://www.w3.org/2000/svg">
<g clip-path="url(#clip0_405_984)">
<g clip-path="url(#clip1_405_984)">
<path d="M12.7322 112.75C14.4131 112.75 15.7747 113.263 16.8168 114.288C17.859 115.297 18.3801 116.759 18.3801 118.675V126.82H16.1108V119.003C16.1108 117.625 15.7663 116.574 15.0771 115.851C14.3879 115.112 13.4466 114.742 12.2531 114.742C11.0428 114.742 10.0763 115.12 9.35347 115.877C8.64748 116.633 8.29448 117.734 8.29448 119.18V126.82H6V113.002H8.29448V114.969C8.74834 114.263 9.36188 113.717 10.1351 113.33C10.9252 112.943 11.7908 112.75 12.7322 112.75Z" fill="white"/>
<path d="M32.2138 119.381C32.2138 119.818 32.1886 120.281 32.1381 120.768H21.0944C21.1784 122.13 21.6407 123.197 22.4811 123.97C23.3384 124.727 24.3722 125.105 25.5825 125.105C26.5742 125.105 27.3979 124.878 28.0535 124.424C28.7258 123.954 29.1965 123.332 29.4654 122.558H31.9364C31.5666 123.886 30.827 124.97 29.7176 125.811C28.6082 126.635 27.2298 127.046 25.5825 127.046C24.2713 127.046 23.0947 126.752 22.0525 126.164C21.0271 125.576 20.2203 124.744 19.632 123.668C19.0436 122.575 18.7495 121.314 18.7495 119.886C18.7495 118.457 19.0352 117.205 19.6067 116.129C20.1783 115.053 20.9767 114.229 22.0021 113.658C23.0443 113.069 24.2377 112.775 25.5825 112.775C26.8936 112.775 28.0535 113.061 29.062 113.633C30.0706 114.204 30.8438 114.994 31.3817 116.003C31.9364 116.994 32.2138 118.121 32.2138 119.381ZM29.8437 118.902C29.8437 118.028 29.6504 117.28 29.2637 116.658C28.8771 116.019 28.3476 115.54 27.6752 115.221C27.0197 114.885 26.2885 114.717 25.4816 114.717C24.3218 114.717 23.33 115.087 22.5064 115.826C21.6995 116.566 21.2373 117.591 21.1196 118.902H29.8437Z" fill="white"/>
<path d="M51.1273 113.002L46.8157 126.82H44.4456L41.1173 115.851L37.789 126.82H35.4189L31.0821 113.002H33.427L36.604 124.601L40.0331 113.002H42.378L45.7315 124.626L48.858 113.002H51.1273Z" fill="white"/>
<path d="M57.3782 115.246C57.7817 114.456 58.3532 113.843 59.0928 113.406C59.8492 112.969 60.7653 112.75 61.8411 112.75V115.12H61.236C58.6641 115.12 57.3782 116.515 57.3782 119.306V126.82H55.0838V113.002H57.3782V115.246Z" fill="white"/>
<path d="M61.1111 119.86C61.1111 118.448 61.3969 117.213 61.9684 116.154C62.5399 115.078 63.3215 114.246 64.3133 113.658C65.3218 113.069 66.4397 112.775 67.6668 112.775C68.877 112.775 69.9276 113.036 70.8185 113.557C71.7094 114.078 72.3734 114.734 72.8104 115.524V113.002H75.1301V126.82H72.8104V124.248C72.3566 125.055 71.6758 125.727 70.7681 126.265C69.8772 126.786 68.835 127.046 67.6415 127.046C66.4144 127.046 65.305 126.744 64.3133 126.139C63.3215 125.534 62.5399 124.685 61.9684 123.592C61.3969 122.499 61.1111 121.256 61.1111 119.86ZM72.8104 119.886C72.8104 118.843 72.6003 117.936 72.1801 117.163C71.7598 116.389 71.1883 115.801 70.4655 115.398C69.7595 114.977 68.9779 114.767 68.1206 114.767C67.2633 114.767 66.4817 114.969 65.7757 115.372C65.0697 115.776 64.5066 116.364 64.0864 117.137C63.6661 117.911 63.456 118.818 63.456 119.86C63.456 120.919 63.6661 121.844 64.0864 122.634C64.5066 123.407 65.0697 124.004 65.7757 124.424C66.4817 124.828 67.2633 125.029 68.1206 125.029C68.9779 125.029 69.7595 124.828 70.4655 124.424C71.1883 124.004 71.7598 123.407 72.1801 122.634C72.6003 121.844 72.8104 120.928 72.8104 119.886Z" fill="white"/>
<path d="M83.2183 112.75C84.8993 112.75 86.2608 113.263 87.303 114.288C88.3452 115.297 88.8663 116.759 88.8663 118.675V126.82H86.597V119.003C86.597 117.625 86.2524 116.574 85.5632 115.851C84.874 115.112 83.9327 114.742 82.7393 114.742C81.529 114.742 80.5624 115.12 79.8396 115.877C79.1336 116.633 78.7806 117.734 78.7806 119.18V126.82H76.4862V113.002H78.7806V114.969C79.2345 114.263 79.848 113.717 80.6213 113.33C81.4113 112.943 82.277 112.75 83.2183 112.75Z" fill="white"/>
<path d="M97.8084 126.82L92.3874 120.718V126.82H90.0929V108.161H92.3874V119.129L97.7076 113.002H100.91L94.4045 119.886L100.935 126.82H97.8084Z" fill="white"/>
<path d="M101.733 110.758C101.296 110.758 100.926 110.607 100.624 110.304C100.321 110.002 100.17 109.632 100.17 109.195C100.17 108.758 100.321 108.388 100.624 108.085C100.926 107.783 101.296 107.632 101.733 107.632C102.153 107.632 102.506 107.783 102.792 108.085C103.095 108.388 103.246 108.758 103.246 109.195C103.246 109.632 103.095 110.002 102.792 110.304C102.506 110.607 102.153 110.758 101.733 110.758ZM102.842 113.002V126.82H100.548V113.002H102.842Z" fill="white"/>
<path d="M110.964 112.75C112.645 112.75 114.006 113.263 115.048 114.288C116.091 115.297 116.612 116.759 116.612 118.675V126.82H114.342V119.003C114.342 117.625 113.998 116.574 113.309 115.851C112.619 115.112 111.678 114.742 110.485 114.742C109.274 114.742 108.308 115.12 107.585 115.877C106.879 116.633 106.526 117.734 106.526 119.18V126.82H104.232V113.002H106.526V114.969C106.98 114.263 107.593 113.717 108.367 113.33C109.157 112.943 110.022 112.75 110.964 112.75Z" fill="white"/>
<path d="M123.537 112.775C124.73 112.775 125.772 113.036 126.663 113.557C127.571 114.078 128.243 114.734 128.68 115.524V113.002H131V127.122C131 128.383 130.731 129.501 130.193 130.476C129.655 131.467 128.882 132.241 127.873 132.795C126.882 133.35 125.722 133.627 124.394 133.627C122.579 133.627 121.066 133.199 119.855 132.341C118.645 131.484 117.931 130.316 117.712 128.837H119.981C120.234 129.677 120.755 130.349 121.545 130.854C122.335 131.375 123.284 131.635 124.394 131.635C125.655 131.635 126.68 131.24 127.47 130.45C128.277 129.66 128.68 128.551 128.68 127.122V124.222C128.226 125.029 127.554 125.702 126.663 126.24C125.772 126.777 124.73 127.046 123.537 127.046C122.31 127.046 121.192 126.744 120.183 126.139C119.191 125.534 118.41 124.685 117.838 123.592C117.267 122.499 116.981 121.256 116.981 119.86C116.981 118.448 117.267 117.213 117.838 116.154C118.41 115.078 119.191 114.246 120.183 113.658C121.192 113.069 122.31 112.775 123.537 112.775ZM128.68 119.886C128.68 118.843 128.47 117.936 128.05 117.163C127.63 116.389 127.058 115.801 126.335 115.398C125.629 114.977 124.848 114.767 123.99 114.767C123.133 114.767 122.352 114.969 121.646 115.372C120.94 115.776 120.376 116.364 119.956 117.137C119.536 117.911 119.326 118.818 119.326 119.86C119.326 120.919 119.536 121.844 119.956 122.634C120.376 123.407 120.94 124.004 121.646 124.424C122.352 124.828 123.133 125.029 123.99 125.029C124.848 125.029 125.629 124.828 126.335 124.424C127.058 124.004 127.63 123.407 128.05 122.634C128.47 121.844 128.68 120.928 128.68 119.886Z" fill="white"/>
<path d="M6 66.9623C6 65.6838 7.03637 64.6475 8.3148 64.6475H24.9814C26.2598 64.6475 27.2962 65.6838 27.2962 66.9623V96.1288H6V66.9623Z" fill="white"/>
<path d="M31.9238 44.7406C31.9238 43.4622 32.9602 42.4258 34.2386 42.4258H50.9052C52.1836 42.4258 53.22 43.4622 53.22 44.7406V96.1292H31.9238V44.7406Z" fill="white"/>
<path d="M57.8516 54.4623C57.8516 53.1838 58.8879 52.1475 60.1664 52.1475H76.8329C78.1114 52.1475 79.1477 53.1838 79.1477 54.4623V96.1287H57.8516V54.4623Z" fill="white"/>
<path d="M83.7773 25.2965C83.7773 24.0181 84.8137 22.9817 86.0921 22.9817H102.759C104.037 22.9817 105.074 24.0181 105.074 25.2965V96.1294H83.7773V25.2965Z" fill="white"/>
<path d="M109.703 6.3148C109.703 5.03637 110.739 4 112.018 4H128.684C129.963 4 130.999 5.03637 130.999 6.3148V96.1291H109.703V6.3148Z" fill="white"/>
</g>
</g>
<defs>
<clipPath id="clip0_405_984">
<rect width="131" height="135" fill="white"/>
</clipPath>
<clipPath id="clip1_405_984">
<rect width="131" height="135" fill="white"/>
</clipPath>
</defs>
</svg>
