<svg width="489" height="259" viewBox="0 0 489 259" fill="none" xmlns="http://www.w3.org/2000/svg">
<g filter="url(#filter0_f_235_406)">
<rect x="36.1035" y="36" width="416.791" height="187" stroke="black" stroke-width="2"/>
</g>
<rect x="36.1035" y="36" width="416.791" height="187" stroke="black" stroke-width="2"/>
<path d="M203.523 122.951C204.281 122.951 204.942 123.117 205.507 123.447C206.083 123.778 206.51 124.194 206.787 124.695V123.095H208.259V132.055C208.259 132.855 208.089 133.565 207.747 134.183C207.406 134.813 206.915 135.303 206.275 135.655C205.646 136.007 204.91 136.183 204.067 136.183C202.915 136.183 201.955 135.911 201.187 135.367C200.419 134.823 199.966 134.082 199.827 133.143H201.267C201.427 133.677 201.758 134.103 202.259 134.423C202.761 134.754 203.363 134.919 204.067 134.919C204.867 134.919 205.518 134.669 206.019 134.167C206.531 133.666 206.787 132.962 206.787 132.055V130.215C206.499 130.727 206.073 131.154 205.507 131.495C204.942 131.837 204.281 132.007 203.523 132.007C202.745 132.007 202.035 131.815 201.395 131.431C200.766 131.047 200.27 130.509 199.907 129.815C199.545 129.122 199.363 128.333 199.363 127.447C199.363 126.551 199.545 125.767 199.907 125.095C200.27 124.413 200.766 123.885 201.395 123.511C202.035 123.138 202.745 122.951 203.523 122.951ZM206.787 127.463C206.787 126.802 206.654 126.226 206.387 125.735C206.121 125.245 205.758 124.871 205.299 124.615C204.851 124.349 204.355 124.215 203.811 124.215C203.267 124.215 202.771 124.343 202.323 124.599C201.875 124.855 201.518 125.229 201.251 125.719C200.985 126.21 200.851 126.786 200.851 127.447C200.851 128.119 200.985 128.706 201.251 129.207C201.518 129.698 201.875 130.077 202.323 130.343C202.771 130.599 203.267 130.727 203.811 130.727C204.355 130.727 204.851 130.599 205.299 130.343C205.758 130.077 206.121 129.698 206.387 129.207C206.654 128.706 206.787 128.125 206.787 127.463ZM211.056 124.519C211.312 124.018 211.675 123.629 212.144 123.351C212.624 123.074 213.205 122.935 213.888 122.935V124.439H213.504C211.872 124.439 211.056 125.325 211.056 127.095V131.863H209.6V123.095H211.056V124.519ZM213.905 127.447C213.905 126.551 214.086 125.767 214.449 125.095C214.811 124.413 215.307 123.885 215.937 123.511C216.577 123.138 217.286 122.951 218.065 122.951C218.833 122.951 219.499 123.117 220.065 123.447C220.63 123.778 221.051 124.194 221.329 124.695V123.095H222.801V131.863H221.329V130.231C221.041 130.743 220.609 131.17 220.033 131.511C219.467 131.842 218.806 132.007 218.049 132.007C217.27 132.007 216.566 131.815 215.937 131.431C215.307 131.047 214.811 130.509 214.449 129.815C214.086 129.122 213.905 128.333 213.905 127.447ZM221.329 127.463C221.329 126.802 221.195 126.226 220.929 125.735C220.662 125.245 220.299 124.871 219.841 124.615C219.393 124.349 218.897 124.215 218.353 124.215C217.809 124.215 217.313 124.343 216.865 124.599C216.417 124.855 216.059 125.229 215.793 125.719C215.526 126.21 215.393 126.786 215.393 127.447C215.393 128.119 215.526 128.706 215.793 129.207C216.059 129.698 216.417 130.077 216.865 130.343C217.313 130.599 217.809 130.727 218.353 130.727C218.897 130.727 219.393 130.599 219.841 130.343C220.299 130.077 220.662 129.698 220.929 129.207C221.195 128.706 221.329 128.125 221.329 127.463ZM225.597 124.711C225.885 124.21 226.312 123.794 226.877 123.463C227.453 123.122 228.12 122.951 228.877 122.951C229.656 122.951 230.36 123.138 230.989 123.511C231.629 123.885 232.13 124.413 232.493 125.095C232.856 125.767 233.037 126.551 233.037 127.447C233.037 128.333 232.856 129.122 232.493 129.815C232.13 130.509 231.629 131.047 230.989 131.431C230.36 131.815 229.656 132.007 228.877 132.007C228.13 132.007 227.469 131.842 226.893 131.511C226.328 131.17 225.896 130.749 225.597 130.247V136.023H224.141V123.095H225.597V124.711ZM231.549 127.447C231.549 126.786 231.416 126.21 231.149 125.719C230.882 125.229 230.52 124.855 230.061 124.599C229.613 124.343 229.117 124.215 228.573 124.215C228.04 124.215 227.544 124.349 227.085 124.615C226.637 124.871 226.274 125.25 225.997 125.751C225.73 126.242 225.597 126.813 225.597 127.463C225.597 128.125 225.73 128.706 225.997 129.207C226.274 129.698 226.637 130.077 227.085 130.343C227.544 130.599 228.04 130.727 228.573 130.727C229.117 130.727 229.613 130.599 230.061 130.343C230.52 130.077 230.882 129.698 231.149 129.207C231.416 128.706 231.549 128.119 231.549 127.447ZM238.186 122.935C238.847 122.935 239.444 123.079 239.978 123.367C240.511 123.645 240.927 124.066 241.226 124.631C241.535 125.197 241.69 125.885 241.69 126.695V131.863H240.25V126.903C240.25 126.029 240.031 125.362 239.594 124.903C239.156 124.434 238.559 124.199 237.802 124.199C237.034 124.199 236.42 124.439 235.962 124.919C235.514 125.399 235.29 126.098 235.29 127.015V131.863H233.834V120.023H235.29V124.343C235.578 123.895 235.972 123.549 236.474 123.303C236.986 123.058 237.556 122.935 238.186 122.935ZM243.7 121.671C243.423 121.671 243.188 121.575 242.996 121.383C242.804 121.191 242.708 120.957 242.708 120.679C242.708 120.402 242.804 120.167 242.996 119.975C243.188 119.783 243.423 119.687 243.7 119.687C243.967 119.687 244.191 119.783 244.372 119.975C244.564 120.167 244.66 120.402 244.66 120.679C244.66 120.957 244.564 121.191 244.372 121.383C244.191 121.575 243.967 121.671 243.7 121.671ZM244.404 123.095V131.863H242.948V123.095H244.404ZM245.221 127.463C245.221 126.557 245.403 125.767 245.765 125.095C246.128 124.413 246.629 123.885 247.269 123.511C247.92 123.138 248.661 122.951 249.493 122.951C250.571 122.951 251.456 123.213 252.149 123.735C252.853 124.258 253.317 124.983 253.541 125.911H251.973C251.824 125.378 251.531 124.957 251.093 124.647C250.667 124.338 250.133 124.183 249.493 124.183C248.661 124.183 247.989 124.471 247.477 125.047C246.965 125.613 246.709 126.418 246.709 127.463C246.709 128.519 246.965 129.335 247.477 129.911C247.989 130.487 248.661 130.775 249.493 130.775C250.133 130.775 250.667 130.626 251.093 130.327C251.52 130.029 251.813 129.602 251.973 129.047H253.541C253.307 129.943 252.837 130.663 252.133 131.207C251.429 131.741 250.549 132.007 249.493 132.007C248.661 132.007 247.92 131.821 247.269 131.447C246.629 131.074 246.128 130.546 245.765 129.863C245.403 129.181 245.221 128.381 245.221 127.463ZM261.862 122.935C262.523 122.935 263.121 123.079 263.654 123.367C264.187 123.645 264.603 124.066 264.902 124.631C265.211 125.197 265.366 125.885 265.366 126.695V131.863H263.926V126.903C263.926 126.029 263.707 125.362 263.27 124.903C262.833 124.434 262.235 124.199 261.478 124.199C260.71 124.199 260.097 124.439 259.638 124.919C259.19 125.399 258.966 126.098 258.966 127.015V131.863H257.51V120.023H258.966V124.343C259.254 123.895 259.649 123.549 260.15 123.303C260.662 123.058 261.233 122.935 261.862 122.935ZM274.624 127.143C274.624 127.421 274.608 127.714 274.576 128.023H267.568C267.622 128.887 267.915 129.565 268.448 130.055C268.992 130.535 269.648 130.775 270.416 130.775C271.046 130.775 271.568 130.631 271.984 130.343C272.411 130.045 272.71 129.65 272.88 129.159H274.448C274.214 130.002 273.744 130.69 273.04 131.223C272.336 131.746 271.462 132.007 270.416 132.007C269.584 132.007 268.838 131.821 268.176 131.447C267.526 131.074 267.014 130.546 266.64 129.863C266.267 129.17 266.08 128.37 266.08 127.463C266.08 126.557 266.262 125.762 266.624 125.079C266.987 124.397 267.494 123.874 268.144 123.511C268.806 123.138 269.563 122.951 270.416 122.951C271.248 122.951 271.984 123.133 272.624 123.495C273.264 123.858 273.755 124.359 274.096 124.999C274.448 125.629 274.624 126.343 274.624 127.143ZM273.12 126.839C273.12 126.285 272.998 125.81 272.752 125.415C272.507 125.01 272.171 124.706 271.744 124.503C271.328 124.29 270.864 124.183 270.352 124.183C269.616 124.183 268.987 124.418 268.464 124.887C267.952 125.357 267.659 126.007 267.584 126.839H273.12ZM276.882 124.519C277.138 124.018 277.501 123.629 277.97 123.351C278.45 123.074 279.031 122.935 279.714 122.935V124.439H279.33C277.698 124.439 276.882 125.325 276.882 127.095V131.863H275.426V123.095H276.882V124.519ZM288.275 127.143C288.275 127.421 288.259 127.714 288.227 128.023H281.219C281.272 128.887 281.566 129.565 282.099 130.055C282.643 130.535 283.299 130.775 284.067 130.775C284.696 130.775 285.219 130.631 285.635 130.343C286.062 130.045 286.36 129.65 286.531 129.159H288.099C287.864 130.002 287.395 130.69 286.691 131.223C285.987 131.746 285.112 132.007 284.067 132.007C283.235 132.007 282.488 131.821 281.827 131.447C281.176 131.074 280.664 130.546 280.291 129.863C279.918 129.17 279.731 128.37 279.731 127.463C279.731 126.557 279.912 125.762 280.275 125.079C280.638 124.397 281.144 123.874 281.795 123.511C282.456 123.138 283.214 122.951 284.067 122.951C284.899 122.951 285.635 123.133 286.275 123.495C286.915 123.858 287.406 124.359 287.747 124.999C288.099 125.629 288.275 126.343 288.275 127.143ZM286.771 126.839C286.771 126.285 286.648 125.81 286.403 125.415C286.158 125.01 285.822 124.706 285.395 124.503C284.979 124.29 284.515 124.183 284.003 124.183C283.267 124.183 282.638 124.418 282.115 124.887C281.603 125.357 281.31 126.007 281.235 126.839H286.771Z" fill="black"/>
<defs>
<filter id="filter0_f_235_406" x="0.103516" y="0" width="488.791" height="259" filterUnits="userSpaceOnUse" color-interpolation-filters="sRGB">
<feFlood flood-opacity="0" result="BackgroundImageFix"/>
<feBlend mode="normal" in="SourceGraphic" in2="BackgroundImageFix" result="shape"/>
<feGaussianBlur stdDeviation="17.5" result="effect1_foregroundBlur_235_406"/>
</filter>
</defs>
</svg>
