<svg width="23" height="24" viewBox="0 0 23 24" fill="none" xmlns="http://www.w3.org/2000/svg">
<path d="M9.03758 11.0499C8.93497 10.88 9.90552 11.0499 9.90552 9.13426C9.90552 6.82836 8.71356 6.50019 8.16989 6.50019C7.62623 6.50019 7.03544 6.46194 6.43389 7.45804C6.33213 7.62653 5.99971 8.41589 6 9.13427C6.00029 9.85265 6.43376 10.8105 6.43376 10.8105C6.43376 10.8105 7.05547 12.9402 8.82085 14.8813C10.3514 16.5643 12.8809 18.1055 14.8962 17.9943C16.2739 17.9183 17.5 16.3181 17.5 15.3603C17.5 14.8813 16.4151 14.1629 16.4151 14.1629C16.4151 14.1629 15.5406 13.4066 14.8962 13.4446C13.5945 13.5213 13.262 15.1657 13.1603 15.1208C10.9904 14.1629 9.1402 11.2199 9.03758 11.0499Z" fill="white"/>
<path d="M11.9259 22.287H11.8926L11.8594 22.2893C10.4283 22.3847 9.0685 22.098 8.04893 21.7748C7.54306 21.6144 7.13112 21.4482 6.84889 21.3238C6.70803 21.2617 6.60019 21.2103 6.52989 21.1757C6.49476 21.1584 6.46907 21.1454 6.45339 21.1373L6.43747 21.129L6.43702 21.1288L6.43659 21.1285L6.43622 21.1283L6.43566 21.128L6.43528 21.1278L6.09609 20.9452L5.72044 21.0391L1.37437 22.1256L2.4609 17.7796L2.55062 17.4207L2.38551 17.0905L2.38541 17.0903L2.38532 17.0901L2.38531 17.0901L2.38518 17.0898L2.38334 17.0861L2.37338 17.0657C2.36416 17.0468 2.3499 17.0171 2.33132 16.9777C2.29415 16.8988 2.2398 16.7809 2.17398 16.6304C2.04209 16.329 1.86557 15.9003 1.68924 15.3965C1.3298 14.3696 1 13.1105 1 12C1 6.20096 5.70065 1.5 11.4996 1.5C17.2744 1.5 21.7871 6.17647 21.7871 12C21.7871 17.2847 17.6418 22.287 11.9259 22.287Z" stroke="white" stroke-width="2"/>
</svg>
